<svg width="162" height="31" viewBox="0 0 162 31" fill="none" xmlns="http://www.w3.org/2000/svg">
<path d="M23.7188 27.3011V19.9432H0.977273V0.90909H6.23295V14.6023H23.7188V7.24432L33.9744 17.2727L23.7188 27.3011ZM48.733 30V0.90909H55.7642V12.5852H67.2273V0.90909H74.2443V30H67.2273V18.3097H55.7642V30H48.733ZM88.8395 30.4119C86.5573 30.4119 84.5923 29.9432 82.9446 29.0057C81.2969 28.0587 80.0279 26.7424 79.1378 25.0568C78.2571 23.3617 77.8168 21.3968 77.8168 19.1619C77.8168 16.9176 78.2571 14.9527 79.1378 13.267C80.0279 11.572 81.2969 10.2557 82.9446 9.31818C84.5923 8.37121 86.5573 7.89773 88.8395 7.89773C91.1312 7.89773 93.0961 8.37121 94.7344 9.31818C96.3821 10.2557 97.6463 11.572 98.527 13.267C99.4171 14.9527 99.8622 16.9176 99.8622 19.1619C99.8622 21.3968 99.4171 23.3617 98.527 25.0568C97.6463 26.7424 96.3821 28.0587 94.7344 29.0057C93.0961 29.9432 91.1312 30.4119 88.8395 30.4119ZM88.8821 25.1705C90.1226 25.1705 91.0838 24.6117 91.7656 23.4943C92.4474 22.3769 92.7884 20.9186 92.7884 19.1193C92.7884 17.3106 92.4474 15.8475 91.7656 14.7301C91.0838 13.6032 90.1226 13.0398 88.8821 13.0398C87.5942 13.0398 86.6046 13.6032 85.9134 14.7301C85.2315 15.8475 84.8906 17.3106 84.8906 19.1193C84.8906 20.9186 85.2315 22.3769 85.9134 23.4943C86.6046 24.6117 87.5942 25.1705 88.8821 25.1705ZM103.42 30V8.18182H110.026V12.1875H110.267C110.722 10.8617 111.489 9.81534 112.568 9.0483C113.657 8.28125 114.945 7.89773 116.432 7.89773C117.947 7.89773 119.244 8.28598 120.324 9.0625C121.403 9.83902 122.09 10.8807 122.384 12.1875H122.611C123.018 10.8902 123.813 9.85322 124.997 9.0767C126.181 8.29072 127.578 7.89773 129.188 7.89773C131.252 7.89773 132.928 8.55587 134.216 9.87216C135.504 11.1884 136.148 13.0019 136.148 15.3125V30H129.202V16.9034C129.202 15.8144 128.918 14.9858 128.349 14.4176C127.791 13.84 127.071 13.5511 126.19 13.5511C125.234 13.5511 124.481 13.8636 123.932 14.4886C123.392 15.1042 123.122 15.9328 123.122 16.9744V30H116.446V16.8324C116.446 15.8191 116.171 15.0189 115.622 14.4318C115.073 13.8447 114.348 13.5511 113.449 13.5511C112.54 13.5511 111.796 13.8731 111.219 14.517C110.651 15.1515 110.366 16.0085 110.366 17.0881V30H103.42ZM150.651 30.4119C147.223 30.4119 144.524 29.4129 142.554 27.4148C140.594 25.4167 139.614 22.6705 139.614 19.1761C139.614 16.9223 140.059 14.9527 140.949 13.267C141.839 11.572 143.094 10.2557 144.713 9.31818C146.332 8.37121 148.241 7.89773 150.438 7.89773C152.502 7.89773 154.33 8.3286 155.92 9.19034C157.511 10.0426 158.757 11.2973 159.656 12.9545C160.556 14.6117 161.006 16.6383 161.006 19.0341V20.767H146.46V20.9517C146.46 22.2869 146.844 23.3617 147.611 24.1761C148.387 24.9905 149.443 25.3977 150.778 25.3977C151.688 25.3977 152.478 25.2083 153.151 24.8295C153.823 24.4413 154.292 23.8873 154.557 23.1676L160.935 23.3523C160.537 25.4924 159.438 27.2064 157.639 28.4943C155.84 29.7727 153.51 30.4119 150.651 30.4119ZM146.46 16.733H154.543C154.533 15.6155 154.154 14.7017 153.406 13.9915C152.668 13.2718 151.725 12.9119 150.58 12.9119C149.424 12.9119 148.458 13.2765 147.682 14.0057C146.915 14.7348 146.508 15.6439 146.46 16.733Z" fill="white"/>
</svg>
